<?xml version="1.0" standalone="no"?>
<!DOCTYPE svg PUBLIC "-//W3C//DTD SVG 1.0//EN" "http://www.w3.org/TR/2001/REC-SVG-20010904/DTD/svg10.dtd">
<svg xmlns="http://www.w3.org/2000/svg" xmlns:xlink="http://www.w3.org/1999/xlink" id="body_1" width="160" height="52">

<g transform="matrix(0.10000001 0 0 0.09942639 0 0)">
    <path transform="matrix(1 0 0 1 747 292)"  d="M0 0C 258.72 0 517.44 0 784 0C 784 112.55751 784 112.55751 776.8086 120.39453C 770.4979 125.99647 763.8277 128.12556 755.49945 128.12419C 754.3974 128.12645 753.29535 128.1287 752.15985 128.13101C 750.3482 128.12708 750.3482 128.12708 748.49994 128.12305C 747.20935 128.1242 745.9187 128.12535 744.589 128.12654C 740.9926 128.12962 737.3963 128.12643 733.7999 128.12227C 729.89276 128.11884 725.98553 128.1212 722.07837 128.12285C 715.226 128.12492 708.37366 128.12328 701.5213 128.1192C 691.33203 128.11317 681.14276 128.11287 670.9535 128.11375C 653.81476 128.11507 636.676 128.11171 619.53723 128.10573C 602.56323 128.09982 585.5892 128.09596 568.6151 128.09488C 567.5604 128.0948 566.5058 128.09474 565.4191 128.09467C 560.06323 128.09433 554.7073 128.09402 549.3514 128.09373C 511.3971 128.09164 473.4428 128.0849 435.48853 128.07544C 398.6122 128.06625 361.73593 128.05917 324.85962 128.05493C 323.7233 128.0548 322.58698 128.05467 321.41623 128.05453C 310.00504 128.0532 298.59384 128.05194 287.18265 128.05069C 263.9359 128.04816 240.6892 128.04533 217.44246 128.04234C 216.37357 128.0422 215.30467 128.04207 214.2034 128.04193C 158.88176 128.03479 103.560135 128.02344 48.23851 128.01111C 47.460148 128.01094 46.681786 128.01076 45.879837 128.01059C 30.586557 128.00717 15.293279 128.00357 0 128C 0 85.76 0 43.52 0 0z" stroke="none" fill="#5F86FC" fill-rule="nonzero" />
    <path transform="matrix(1 0 0 1 923 128)"  d="M0 0C 1 1 1 1 1.1135254 3.7756348C 1.1056702 5.590192 1.1056702 5.590192 1.0976562 7.4414062C 1.0928223 9.39917 1.0928223 9.39917 1.0878906 11.396484C 1.079534 12.785157 1.071069 14.173829 1.0625 15.5625C 1.0574867 16.955076 1.0529234 18.347654 1.0488281 19.740234C 1.0369943 23.160198 1.0205088 26.580078 1 30C 0.38068604 29.959234 -0.23862793 29.918467 -0.876709 29.876465C -3.7296474 29.696178 -6.583382 29.535486 -9.4375 29.375C -10.89833 29.27832 -10.89833 29.27832 -12.388672 29.179688C -19.458418 28.801373 -26.308456 28.839096 -32.5625 32.5C -34.888607 36.545403 -34.8231 40.465584 -34 45C -31.53821 48.811802 -29.266535 50.129456 -24.96875 51.085938C -19.807024 52.15565 -14.695014 52.43985 -9.4375 52.625C -8.067549 52.683006 -8.067549 52.683006 -6.669922 52.742188C -4.4468007 52.835304 -2.2236638 52.921124 0 53C 1.529344 58.27772 1.4089113 63.731262 1.625 69.1875C 1.7023437 70.86489 1.7023437 70.86489 1.78125 72.57617C 1.8250781 73.63772 1.8689063 74.69926 1.9140625 75.79297C 1.9548291 76.76774 1.9955957 77.742516 2.0375977 78.746826C 2 81 2 81 1 82C -1.9820827 82.18806 -4.952443 82.32679 -7.9375 82.4375C -21.652206 82.47154 -21.652206 82.47154 -33 89C -35.250595 92.96533 -35.47405 96.49654 -35 101C -32.614502 106.28959 -29.54291 108.09069 -24.414062 110.23828C -11.73565 114.238754 3.6478167 113.330765 15.375 107.25C 19.890926 103.3792 22.154087 98.91068 23 93C 23.159536 89.96541 23.18479 86.9336 23.205322 83.89526C 23.215221 82.98745 23.22512 82.079636 23.235321 81.14432C 23.266836 78.15223 23.291655 75.16012 23.316406 72.16797C 23.336985 70.09003 23.35798 68.01209 23.37938 65.93416C 23.434511 60.471275 23.48396 55.008358 23.532227 49.54541C 23.582506 43.96839 23.638159 38.391426 23.69336 32.814453C 23.800833 21.876347 23.901804 10.938194 24 0C 36.87 0 49.74 0 63 0C 63.06806 12.127395 63.122982 24.25466 63.155437 36.382202C 63.17102 42.014885 63.192127 47.647427 63.22632 53.28003C 63.259167 58.72655 63.276905 64.172935 63.284634 69.61955C 63.29013 71.68653 63.300865 73.75351 63.31719 75.820435C 63.459854 94.649 62.82324 113.67238 49.023438 128.19531C 33.90318 141.68095 14.547562 144.43236 -4.9375 144.375C -5.663776 144.37413 -6.390052 144.37325 -7.138336 144.37234C -28.217985 144.2886 -48.122787 141.66377 -63.941406 126.390625C -71.81435 117.247856 -73.49881 106.526924 -73.3125 94.82422C -72.3756 83.358986 -67.34015 74.6986 -59 67C -59.596836 66.746056 -60.193672 66.49211 -60.808594 66.23047C -66.45365 63.060783 -70.14275 55.962734 -72 50C -74.151375 36.661453 -72.579735 24.385323 -65 13C -58.883327 5.816721 -51.913662 1.8475862 -43 -1C -42.235584 -1.2449219 -41.471172 -1.4898437 -40.683594 -1.7421875C -27.761633 -5.023242 -12.63682 -3.8227372 0 0z" stroke="none" fill="#5F85FD" fill-rule="nonzero" />
    <path transform="matrix(1 0 0 1 1359 140)"  d="M0 0C 0.62390625 0.49886718 1.2478125 0.99773437 1.890625 1.5117188C 11.100505 9.746679 16.247005 22.23457 19 34C 19.336445 35.41539 19.336445 35.41539 19.679688 36.859375C 24.05927 59.53722 22.22242 86.02613 10.113281 106.13281C 0.6509628 119.777885 -12.720187 127.81748 -29 131C -53.004078 134.90039 -89.95108 135.03261 -111 121C -111.28672 118.51574 -111.37868 116.28139 -111.340576 113.79639C -111.34101 113.054825 -111.34145 112.31326 -111.3419 111.549225C -111.33981 109.092445 -111.31645 106.636345 -111.29297 104.17969C -111.28738 102.47861 -111.283104 100.77753 -111.280106 99.07645C -111.26864 94.59482 -111.23916 90.11347 -111.20599 85.63196C -111.16994 80.25724 -111.15614 74.88242 -111.13863 69.507614C -111.10952 61.338207 -111.05205 53.169437 -111 45C -90.21 45 -69.42 45 -48 45C -47.403564 52.15722 -46.83589 59.04992 -46.875 66.1875C -46.87113 66.9358 -46.867264 67.684105 -46.86328 68.45508C -46.873123 73.87312 -46.873123 73.87312 -48 75C -49.926674 75.08748 -51.856518 75.10697 -53.785156 75.09766C -55.539894 75.09282 -55.539894 75.09282 -57.33008 75.08789C -58.56178 75.07951 -59.793476 75.07114 -61.0625 75.0625C -62.915848 75.05573 -62.915848 75.05573 -64.80664 75.04883C -67.87112 75.036995 -70.93556 75.01906 -74 75C -73.505 86.385 -73.505 86.385 -73 98C -65.836716 99.302414 -59.63405 100.36323 -52.5 100.3125C -51.271805 100.30621 -51.271805 100.30621 -50.0188 100.299805C -41.22585 100.13628 -32.881516 98.898445 -26 93C -16.87169 83.4532 -16.681755 68.539154 -16.78125 56.089844C -17.201437 45.204353 -18.881784 33.36194 -26.625 25.25C -42.855415 13.288628 -67.201614 16.228308 -86 19C -90.088104 19.77067 -94.13789 20.67986 -98.176025 21.67871C -101.99608 22.617857 -105.00299 23 -109 23C -109 13.1 -109 3.2 -109 -7C -75.37363 -16.720123 -29.418852 -23.941938 0 0z" stroke="none" fill="#5F85FD" fill-rule="nonzero" />
    <path transform="matrix(1 0 0 1 816.1875 136.1875)"  d="M0 0C 8.840509 8.137486 14.396126 21.005205 14.904621 32.982323C 14.942409 35.602398 14.947594 38.220722 14.941895 40.841064C 14.944523 42.332264 14.944523 42.332264 14.947205 43.853592C 14.951593 47.127674 14.948697 50.4017 14.9453125 53.67578C 14.945986 55.951675 14.946957 58.22757 14.948212 60.503464C 14.949684 65.26542 14.947547 70.02735 14.942871 74.78931C 14.937158 80.907486 14.940466 87.02562 14.946444 93.1438C 14.950047 97.83876 14.948912 102.53372 14.946316 107.22869C 14.945646 109.485855 14.946474 111.74302 14.948795 114.000175C 14.95132 117.14378 14.947485 120.28731 14.941895 123.43091C 14.943919 124.37166 14.945943 125.312416 14.948029 126.28168C 14.926765 132.69823 14.926765 132.69823 13.8125 133.8125C 11.085258 133.9135 8.383875 133.95221 5.65625 133.94531C 4.4300494 133.94675 4.4300494 133.94675 3.1790771 133.94821C 1.4473462 133.9489 -0.28438723 133.94704 -2.0161133 133.94287C -4.6761646 133.93752 -7.3360476 133.94281 -9.996094 133.94922C -11.6744795 133.94856 -13.352865 133.94728 -15.03125 133.94531C -15.832281 133.94734 -16.633312 133.94936 -17.458618 133.95145C -23.07255 133.92744 -23.07255 133.92744 -24.1875 132.8125C -24.296867 129.87749 -24.341738 126.96514 -24.345215 124.0293C -24.350296 123.10726 -24.355377 122.185234 -24.360611 121.23526C -24.371342 119.22453 -24.379951 117.21379 -24.38673 115.20305C -24.398493 112.016365 -24.417942 108.82982 -24.43985 105.64319C -24.501534 96.57955 -24.555403 87.51593 -24.588867 78.45215C -24.609869 72.91361 -24.645226 67.37532 -24.689625 61.83693C -24.70375 59.728752 -24.7125 57.620533 -24.71568 55.512314C -24.720613 52.55157 -24.743841 49.591473 -24.770996 46.63086C -24.76799 45.767117 -24.764984 44.903374 -24.761887 44.01346C -24.853937 37.21992 -25.6677 30.398611 -30.5625 25.375C -38.72098 20.51876 -47.638855 19.908026 -56.785156 22.089844C -60.811028 23.300879 -64.45684 24.887402 -68.1875 26.8125C -68.96728 27.20267 -69.74705 27.592836 -70.55045 27.99483C -75.22815 30.598722 -75.22815 30.598722 -78.01631 34.97073C -78.33665 37.606094 -78.367195 40.111023 -78.301025 42.765137C -78.312096 43.751125 -78.32316 44.73711 -78.334564 45.752975C -78.36051 49.00077 -78.32318 52.244564 -78.28516 55.492188C -78.29081 57.74807 -78.30042 60.003944 -78.31383 62.259796C -78.33844 68.18847 -78.30935 74.11571 -78.26904 80.04425C -78.237404 86.09726 -78.256584 92.150085 -78.271484 98.203125C -78.29321 110.07329 -78.2582 121.94255 -78.1875 133.8125C -83.58097 133.83714 -88.97441 133.85533 -94.36792 133.86743C -96.204185 133.87247 -98.04045 133.8793 -99.87671 133.88794C -102.51026 133.90001 -105.14377 133.90573 -107.77734 133.91016C -109.01641 133.9179 -109.01641 133.9179 -110.2805 133.9258C -112.24986 133.926 -114.21912 133.87454 -116.1875 133.8125C -117.1875 132.8125 -117.1875 132.8125 -117.31055 130.4874C -117.30962 129.44855 -117.3087 128.40968 -117.307755 127.33934C -117.309814 125.557686 -117.309814 125.557686 -117.31192 123.740036C -117.30833 122.42518 -117.30473 121.11032 -117.301025 119.755615C -117.30074 118.366325 -117.3009 116.97703 -117.30147 115.58774C -117.30176 111.80485 -117.29586 108.02199 -117.288895 104.239105C -117.28266 100.28994 -117.28206 96.34078 -117.28087 92.39162C -117.277756 84.90825 -117.26954 77.4249 -117.25952 69.941536C -117.24836 61.42414 -117.24285 52.90675 -117.23782 44.38935C -117.227356 26.863724 -117.209015 9.338118 -117.1875 -8.1875C -105.3075 -8.1875 -93.4275 -8.1875 -81.1875 -8.1875C -80.5275 -4.8875 -79.8675 -1.5875 -79.1875 1.8125C -78.54426 1.4373828 -77.90102 1.0622656 -77.23828 0.67578125C -53.51246 -12.760954 -22.7841 -18.304806 0 0z" stroke="none" fill="#5F85FD" fill-rule="nonzero" />
    <path transform="matrix(1 0 0 1 1403.6018 127.886475)"  d="M0 0C 1.6027919 0.00015914 3.205589 0.00585476 4.8083496 0.01586914C 5.6503844 0.01728409 6.4924192 0.01869904 7.35997 0.02015686C 10.060246 0.02577276 12.760442 0.03832791 15.460693 0.05102539C 17.286863 0.05603834 19.113035 0.06060161 20.939209 0.06469727C 25.42557 0.07574735 29.911867 0.0930226 34.398193 0.11352539C 34.410324 1.8090907 34.410324 1.8090907 34.4227 3.53891C 34.500366 14.219814 34.588158 24.900593 34.68572 35.581337C 34.73555 41.071693 34.781883 46.562035 34.82007 52.05249C 34.85709 57.356426 34.903492 62.660206 34.956257 67.964005C 34.974712 69.98205 34.989853 72.000114 35.001537 74.018196C 35.01855 76.85661 35.047623 79.69468 35.079346 82.53296C 35.081505 83.35728 35.083668 84.18159 35.08589 85.03088C 35.2002 93.09803 35.69679 101.97355 41.398193 108.113525C 48.332954 113.01225 56.216953 112.98559 64.39819 112.113525C 68.664444 111.22778 72.39615 109.80503 76.39819 108.113525C 77.36457 107.793915 78.33095 107.474304 79.326614 107.145004C 82.93733 105.55065 84.89496 104.201256 87.39819 101.113525C 89.553085 93.85327 88.815254 85.819824 88.69116 78.33618C 88.693085 76.08173 88.69985 73.827286 88.71126 71.57286C 88.72823 65.652054 88.67954 59.733543 88.617065 53.81311C 88.56491 47.766777 88.57501 41.72058 88.579834 35.674072C 88.58013 23.819656 88.505295 11.967459 88.39819 0.11352539C 101.268196 0.11352539 114.13819 0.11352539 127.39819 0.11352539C 127.39819 46.973526 127.39819 93.83353 127.39819 142.11353C 115.84819 142.11353 104.298195 142.11353 92.39819 142.11353C 91.408195 138.64853 91.408195 138.64853 90.39819 135.11353C 90.06819 134.12352 89.73819 133.13353 89.39819 132.11353C 88.4894 132.64462 87.58061 133.17572 86.64429 133.7229C 69.19399 143.6623 50.22104 147.3742 30.218506 143.41821C 23.495378 141.53574 17.815422 138.49637 12.398193 134.11353C 11.477802 133.39616 11.477802 133.39616 10.538818 132.6643C 0.20200437 123.58529 -3.4881604 109.27792 -4.6018066 96.113525C -4.7307415 92.87032 -4.73889 89.63242 -4.731201 86.38696C -4.7329535 85.46066 -4.734706 84.53437 -4.736511 83.58C -4.7408767 80.54949 -4.7380123 77.519035 -4.734619 74.488525C -4.7352934 72.37386 -4.736264 70.25919 -4.7375183 68.14453C -4.738988 63.730053 -4.7368636 59.315598 -4.7321777 54.901123C -4.726453 49.23031 -4.7297816 43.559544 -4.73575 37.888733C -4.7393527 33.5309 -4.7382193 29.173079 -4.7356224 24.815247C -4.734954 22.722757 -4.73578 20.630268 -4.738102 18.53778C -4.740626 15.626803 -4.7367926 12.715903 -4.731201 9.804932C -4.7332253 8.934346 -4.7352495 8.063761 -4.737335 7.166794C -4.7122116 0.14852425 -4.7122116 0.14852425 0 0z" stroke="none" fill="#5F85FC" fill-rule="nonzero" />
    <path transform="matrix(1 0 0 1 308 128)"  d="M0 0C 12.54 0 25.08 0 38 0C 38.009346 2.880813 38.018692 5.761626 38.02832 8.729736C 38.062176 18.277205 38.117775 27.82446 38.183903 37.371754C 38.223312 43.156944 38.25553 48.941986 38.270996 54.727295C 38.286205 60.316628 38.32073 65.90555 38.36831 71.4947C 38.38308 73.62075 38.391037 75.746864 38.391884 77.87296C 37.809055 95.08548 37.809055 95.08548 44.88092 110.17024C 51.791985 116.93591 60.18941 118.90443 69.625 119.25C 79.77793 119.127304 88.44721 116.55279 95.6875 109.3125C 100.76139 102.80463 101.44546 95.05029 101.43237 87.073975C 101.442566 86.126564 101.45276 85.17915 101.46326 84.20303C 101.49321 81.102745 101.502625 78.00276 101.51172 74.90234C 101.52858 72.74043 101.54673 70.57853 101.56612 68.41664C 101.61348 62.749958 101.64338 57.083317 101.669556 51.416504C 101.69943 45.624596 101.74593 39.83282 101.791016 34.041016C 101.87689 22.694067 101.94277 11.34713 102 0C 114.54 0 127.08 0 140 0C 140.06802 12.405433 140.12296 24.81074 140.15544 37.216316C 140.17104 42.977943 140.19215 48.73943 140.22632 54.500977C 140.25914 60.070686 140.2769 65.64027 140.28464 71.21006C 140.29013 73.325325 140.30089 75.440575 140.31718 77.55578C 140.47 98.21517 138.74426 115.97236 124.33203 131.83594C 115.34884 140.601 102.19371 145.90123 90 148C 88.98937 148.18176 87.97875 148.36351 86.9375 148.55078C 62.826336 151.30156 37.793552 149.2532 18 134C 6.406028 123.28955 0.5352711 109.45211 -0.08998299 93.7386C -0.12208522 91.25161 -0.12381658 88.76648 -0.11352539 86.2793C -0.11367142 85.34179 -0.11381744 84.404274 -0.1139679 83.438354C -0.11327584 80.36513 -0.10551678 77.29196 -0.09765625 74.21875C -0.09578956 72.07784 -0.09436684 69.93693 -0.09336853 67.79602C -0.08956316 62.180244 -0.07974987 56.564495 -0.06866455 50.94873C -0.05840776 45.210617 -0.05386178 39.472496 -0.04882812 33.734375C -0.03812574 22.48957 -0.02054507 11.244791 0 0z" stroke="none" fill="#5F85FC" fill-rule="nonzero" />
    <path transform="matrix(1 0 0 1 1012 128)"  d="M0 0C 5.39347 -0.02464849 10.786907 -0.04283531 16.18042 -0.05493164C 18.01669 -0.05997231 19.852953 -0.06680477 21.689209 -0.07543945C 24.322763 -0.08751672 26.956266 -0.09323081 29.589844 -0.09765625C 30.415886 -0.10281754 31.241928 -0.10797882 32.093002 -0.11329651C 34.062363 -0.11349205 36.031616 -0.06204152 38 0C 40.073082 2.0730822 39.15418 6.558721 39.157715 9.416016C 39.162796 10.299033 39.167877 11.182052 39.17311 12.091827C 39.18384 14.01743 39.19245 15.943047 39.19923 17.868668C 39.210995 20.920935 39.230442 23.973059 39.25235 27.025269C 39.314026 35.706577 39.367893 44.38787 39.401367 53.069336C 39.422375 58.37446 39.457737 63.679325 39.502125 68.9843C 39.516247 71.00316 39.524998 73.022064 39.52818 75.04097C 39.533115 77.87719 39.55635 80.712746 39.583496 83.54883C 39.58049 84.37517 39.577484 85.20151 39.574387 86.05289C 39.67587 93.23472 41.479313 99.716484 45 106C 46.827587 107.18753 46.827587 107.18753 49 108C 49.748947 108.3532 50.49789 108.706406 51.26953 109.07031C 60.970253 113.09365 71.09791 113.62333 81.125 110.3125C 87.774956 107.50057 91.18106 103.6245 94 97C 95.25148 92.74007 95.16761 88.52317 95.18945 84.116455C 95.19775 83.220146 95.20604 82.323845 95.214584 81.400375C 95.231964 79.45681 95.24714 77.51322 95.26036 75.56962C 95.281395 72.49832 95.30842 69.427124 95.337036 66.35588C 95.40685 58.731712 95.46638 51.107468 95.52606 43.483215C 95.576904 37.035385 95.63168 30.587616 95.69188 24.139868C 95.718544 21.10578 95.739296 18.071686 95.75989 15.037552C 95.77648 13.190152 95.79335 11.342755 95.81055 9.495361C 95.81473 8.644973 95.81892 7.7945843 95.82323 6.9184265C 95.88615 1.1138504 95.88615 1.1138504 97 0C 99.81163 -0.08861992 102.59858 -0.11522355 105.41016 -0.09765625C 106.25219 -0.0962413 107.09422 -0.09482635 107.96178 -0.09336853C 110.662056 -0.08775263 113.36225 -0.07519748 116.0625 -0.0625C 117.88867 -0.05748705 119.71484 -0.05292379 121.541016 -0.04882812C 126.027374 -0.03777804 130.51367 -0.02050279 135 0C 135.0931 12.3881035 135.16397 24.776123 135.20724 37.164505C 135.22803 42.91831 135.25618 48.67187 135.30176 54.425537C 135.34555 59.988777 135.3692 65.55179 135.3795 71.11519C 135.38684 73.226845 135.40115 75.338486 135.42293 77.45004C 135.58424 93.7674 134.87161 108.26783 125 122C 124.2575 123.05187 123.515 124.10375 122.75 125.1875C 116.04972 132.04005 107.93369 136.66997 99 140C 97.95586 140.39445 96.91172 140.78891 95.83594 141.19531C 73.03638 148.29845 46.496773 145.54898 25.398682 135.08203C 13.653269 128.91649 6.6831164 118.93055 2.1282196 106.649475C -0.9437143 96.1516 -0.3760253 85.43784 -0.29296875 74.609375C -0.2873642 72.45177 -0.2830982 70.29415 -0.2801056 68.136536C -0.26872426 62.49442 -0.23931566 56.852535 -0.20599365 51.21051C -0.17514715 45.43855 -0.16156925 39.66655 -0.14648438 33.89453C -0.11443887 22.59625 -0.06332483 11.298145 0 0z" stroke="none" fill="#5F85FC" fill-rule="nonzero" />
    <path transform="matrix(1 0 0 1 461 128)"  d="M0 0C 12.21 0 24.42 0 37 0C 37.014584 2.8254638 37.029163 5.6509275 37.04419 8.562012C 37.09464 17.921871 37.161255 27.281567 37.235714 36.641262C 37.280346 42.313236 37.31962 47.985138 37.346436 53.657227C 37.37254 59.136276 37.412994 64.61506 37.463184 70.09393C 37.479805 72.178955 37.491352 74.264015 37.497616 76.34908C 37.50731 79.28103 37.53543 82.21227 37.567627 85.14404C 37.566193 85.996414 37.56476 86.84878 37.56328 87.726974C 37.710007 97.24211 40.032276 106.18992 47 113C 55.93878 119.33635 67.562065 120.1204 78.08594 118.53516C 85.51386 116.95415 91.853775 114.54978 96.30469 108.11328C 100.35542 100.58837 101.2975 92.864044 101.31885 84.46289C 101.328896 83.54488 101.338936 82.626884 101.34929 81.68106C 101.37997 78.6728 101.39711 75.66462 101.41406 72.65625C 101.432785 70.56017 101.45236 68.4641 101.47275 66.36804C 101.52394 60.87069 101.56364 55.373314 101.60089 49.875854C 101.64101 44.25832 101.69206 38.64089 101.74219 33.023438C 101.8388 22.015688 101.92224 11.007898 102 0C 114.21 0 126.42 0 139 0C 139.06798 12.813855 139.12294 25.62759 139.15544 38.441586C 139.17104 44.392685 139.19218 50.343655 139.22632 56.294678C 139.2591 62.04593 139.27689 67.79706 139.28464 73.54839C 139.29015 75.73425 139.3009 77.92011 139.31718 80.10592C 139.45654 99.59557 138.35692 116.555145 124.1875 131.4375C 109.06796 145.46735 89.28408 149.4159 69.1875 149.3125C 67.48074 149.30513 67.48074 149.30513 65.7395 149.2976C 48.030945 149.0516 32.159733 144.98647 18 134C 17.113125 133.40187 16.22625 132.80376 15.3125 132.1875C 6.154003 123.524055 0.75169104 111.09013 -0.18126297 98.566864C -0.24381523 95.94477 -0.24772808 93.329544 -0.22705078 90.70679C -0.22734283 89.72036 -0.22763489 88.73394 -0.22793579 87.71762C -0.22655284 84.487434 -0.21104062 81.257484 -0.1953125 78.02734C -0.19157869 75.775764 -0.18873346 73.52418 -0.18673706 71.2726C -0.1791296 65.3691 -0.15950602 59.46571 -0.1373291 53.562256C -0.11680833 47.52915 -0.10772205 41.496025 -0.09765625 35.46289C -0.07625729 23.641876 -0.0410988 11.820962 0 0z" stroke="none" fill="#5F85FD" fill-rule="nonzero" />
    <path transform="matrix(1 0 0 1 202 131)"  d="M0 0C 1 1 1 1 1.1135254 3.8674316C 1.1056702 5.74483 1.1056702 5.74483 1.0976562 7.6601562C 1.0962414 8.324623 1.0948263 8.989089 1.0933685 9.673691C 1.0877552 11.803339 1.0752006 13.932883 1.0625 16.0625C 1.0574867 17.503254 1.0529236 18.94401 1.0488281 20.384766C 1.0377815 23.92321 1.0205079 27.461596 1 31C -3.5787032 32.08251 -6.226655 31.584997 -10.75 30.1875C -27.005138 25.466562 -45.93271 23.51501 -62.1875 29.25C -65.19567 30.81016 -65.19567 30.81016 -66.625 33.875C -67.20037 36.93838 -67.20037 36.93838 -66.25 39.5625C -59.95399 46.383175 -49.453857 48.666237 -40.875 51.375C -3.3968945 63.594467 -3.3968945 63.594467 4.8515625 77.68359C 10.251475 88.57526 11.248873 102.50338 7.375 114.125C 2.800398 124.56981 -4.2930903 131.07112 -14.625 135.6875C -27.124836 140.46326 -38.981403 141.51427 -52.1875 141.375C -52.954914 141.37102 -53.722332 141.36702 -54.513 141.36292C -71.39313 141.2601 -85.66971 139.0247 -102 134C -102 123.44 -102 112.88 -102 102C -93.01538 103.12308 -93.01538 103.12308 -89.34375 104.15625C -88.5484 104.3741 -87.753044 104.59195 -86.93359 104.81641C -85.311195 105.27213 -83.688805 105.72787 -82.06641 106.18359C -73.18495 108.61628 -64.79846 109.181496 -55.625 109.1875C -54.159336 109.20587 -54.159336 109.20587 -52.664062 109.22461C -41.14093 109.26722 -41.14093 109.26722 -30.875 104.75C -28.603178 101.418 -28.25893 99.95238 -29 96C -31.68415 91.99427 -33.978848 90.182014 -38.453125 88.45703C -39.515957 88.044044 -40.57879 87.631065 -41.67383 87.20557C -47.003273 85.27392 -52.36879 83.46875 -57.75 81.6875C -94.376656 69.24668 -94.376656 69.24668 -102.75 52.5C -106.51202 41.966362 -105.930145 30.424648 -102 20C -95.48355 7.932502 -85.96896 1.2596078 -73.13281 -2.9375C -50.8213 -9.365193 -21.851143 -8.024978 0 0z" stroke="none" fill="#5F85FD" fill-rule="nonzero" />
    <path transform="matrix(1 0 0 1 1155.6455 62.87558)"  d="M0 0C 0.809919 0.00359528 1.619838 0.00719055 2.4543 0.01089478C 3.3030066 0.01074875 4.1517134 0.01060272 5.0261383 0.01045227C 7.8452353 0.01115168 10.664268 0.01894539 13.483353 0.02676392C 15.432485 0.028628 17.381617 0.03005195 19.33075 0.03105164C 24.471516 0.03487761 29.612251 0.04470858 34.753006 0.05575562C 39.9945 0.06596802 45.235992 0.07054889 50.477493 0.07559204C 60.769825 0.08633078 71.062126 0.10392822 81.35445 0.12442017C 81.35445 10.35442 81.35445 20.58442 81.35445 31.12442C 65.01945 31.619421 65.01945 31.619421 48.354446 32.12442C 50.334446 35.09442 52.314445 38.06442 54.354446 41.12442C 57.93498 50.26095 58.503494 58.608208 58.52803 68.336334C 58.534718 69.44444 58.541405 70.55255 58.548294 71.694244C 58.5623 74.09121 58.57421 76.48818 58.584244 78.88517C 58.600693 82.67556 58.62393 86.46585 58.64914 90.256195C 58.719826 101.0296 58.780254 111.80305 58.831253 122.57657C 58.862556 129.17232 58.90423 135.76796 58.951447 142.3636C 58.967495 144.87866 58.979805 147.39375 58.988358 149.90884C 59.00046 153.41605 59.02459 156.92297 59.051468 160.43008C 59.052055 161.47429 59.052647 162.5185 59.053253 163.59433C 59.062973 164.54755 59.07269 165.50078 59.082703 166.48288C 59.086933 167.31169 59.091167 168.14052 59.095528 168.99445C 59.228596 171.4234 59.228596 171.4234 61.354446 174.12442C 64.11156 174.66943 66.69597 175.04991 69.47945 175.31192C 70.610596 175.43471 70.610596 175.43471 71.7646 175.55997C 73.62661 175.76031 75.4904 175.94395 77.35445 176.12442C 77.379105 180.37857 77.397285 184.63268 77.40938 188.88687C 77.41442 190.33511 77.42125 191.78337 77.429886 193.2316C 77.44197 195.30917 77.44768 197.38667 77.4521 199.46426C 77.45734 200.71587 77.46258 201.96747 77.46797 203.25699C 77.35445 206.12442 77.35445 206.12442 76.35445 207.12442C 71.83499 207.36977 67.309525 207.35307 62.784134 207.36465C 60.523323 207.37424 58.263474 207.40518 56.002884 207.43692C 45.531097 207.51366 34.69231 207.27116 26.354446 200.12442C 19.287634 192.2088 19.060387 184.08543 19.083206 173.87784C 19.07798 172.659 19.072752 171.44016 19.067368 170.18437C 19.057144 167.54341 19.050411 164.90273 19.049486 162.26178C 19.047535 158.07376 19.029417 153.8859 19.008728 149.69794C 18.959684 139.29248 18.92874 128.88696 18.907425 118.481415C 18.890839 110.39755 18.86784 102.313835 18.824404 94.230064C 18.802805 90.07976 18.794554 85.92972 18.796797 81.77936C 18.794716 78.568634 18.773308 75.35803 18.755081 72.14737C 18.759659 71.01756 18.764236 69.88776 18.768951 68.72371C 18.679054 58.694336 17.89009 47.77186 11.159134 39.835358C 6.246651 35.17807 0.4344428 32.012417 -5.6455536 29.12442C -7.4483457 27.321629 -6.7759194 24.583942 -6.778366 22.15567C -6.779655 20.94524 -6.7809443 19.73481 -6.7822723 18.487701C -6.778405 17.212818 -6.774538 15.937936 -6.7705536 14.62442C -6.7744207 13.349537 -6.778288 12.074655 -6.7822723 10.761139C -6.7809834 9.550709 -6.779694 8.34028 -6.778366 7.09317C -6.7772384 5.9736195 -6.77611 4.8540688 -6.774948 3.700592C -6.5366235 -1.0443171 -4.174674 0.00782483 0 0z" stroke="none" fill="#5F85FC" fill-rule="nonzero" />
    <path transform="matrix(1 0 0 1 655 321)"  d="M0 0C 0.70125 0.598125 1.4025 1.19625 2.125 1.8125C 3.053125 2.4003124 3.053125 2.4003124 4 3C 6.4427824 2.4255736 6.4427824 2.4255736 9 1C 18.316986 -3.159369 27.947762 -4.828914 37.9375 -1.75C 45.00333 1.0381385 47.751846 4.851933 50.984375 11.5625C 52.96187 16.30848 53.13887 20.600243 53.113525 25.706055C 53.11367 26.47717 53.11382 27.248287 53.113968 28.04277C 53.113274 30.585835 53.1055 33.128822 53.097656 35.671875C 53.09579 37.43736 53.094368 39.20284 53.09337 40.968323C 53.089554 45.610916 53.07973 50.253475 53.068665 54.896057C 53.05843 59.635128 53.053867 64.37421 53.04883 69.11328C 53.03811 78.40887 53.021046 87.70443 53 97C 48.520847 97.02886 44.041718 97.04675 39.5625 97.0625C 38.283104 97.07088 37.00371 97.079254 35.685547 97.08789C 34.470604 97.09111 33.255665 97.09434 32.003906 97.09766C 30.87799 97.10289 29.752075 97.10813 28.592041 97.113525C 26 97 26 97 25 96C 24.881113 93.74126 24.832537 91.478806 24.810547 89.21704C 24.798107 88.153625 24.798107 88.153625 24.785416 87.068726C 24.767979 85.524536 24.752823 83.98032 24.73964 82.4361C 24.718672 79.994835 24.691645 77.55371 24.662964 75.11253C 24.603167 69.92924 24.551065 64.74589 24.5 59.5625C 24.440836 53.561638 24.378567 47.560844 24.30812 41.5601C 24.281488 39.150406 24.260706 36.740704 24.240112 34.330948C 24.223513 32.858078 24.20664 31.385216 24.189453 29.912354C 24.176926 28.622974 24.164396 27.333593 24.15149 26.005142C 24.205511 23.076344 24.205511 23.076344 23 21C 19.711588 20.414396 19.711588 20.414396 16 21C 14.813177 22.570076 14.813177 22.570076 13.875 24.5C 12.7109375 26.414062 12.7109375 26.414062 11 28C 6.506072 29.056711 2.4939282 29.056711 -2 28C -3.823687 26.309551 -4.73906 24.758286 -5.890625 22.570312C -7.0379663 20.553717 -7.0379663 20.553717 -10.625 20.375C -14.1953745 21.03618 -14.828228 21.303587 -17 24C -17.96362 26.020027 -17.96362 26.020027 -18.625 28.25C -18.984648 29.340548 -18.984648 29.340548 -19.351562 30.453125C -22.18202 41.570347 -23.366383 57.502415 -18 68C -15.031547 71.749626 -12.544644 73.63962 -8 75C -4.72351 75.235916 -1.4701929 75.188156 1.8125 75.125C 4.844375 75.08375 7.87625 75.0425 11 75C 11 81.93 11 88.86 11 96C -1.3941983 100.95768 -13.903408 99.62218 -26.253906 95.19141C -35.35209 91.185356 -40.49416 83.9127 -44.773438 75.22266C -51.619213 57.23615 -50.49686 32.632744 -42.714844 15.105469C -38.73324 7.707892 -32.68266 1.1293974 -24.75 -2C -16.478916 -4.2346435 -7.506953 -4.312505 0 0z" stroke="none" fill="#5F85FD" fill-rule="nonzero" />
    <path transform="matrix(1 0 0 1 425.75 317.75)"  d="M0 0C 0.66515625 -0.020625 1.3303125 -0.04125 2.015625 -0.0625C 8.0116415 -0.1086232 11.062854 1.187618 17.25 3.25C 17.25 10.18 17.25 17.11 17.25 24.25C 7.4375 24.125 7.4375 24.125 4.356201 24.069824C 3.5515845 24.064829 2.7469678 24.059834 1.9179688 24.054688C 1.0957886 24.044214 0.2736084 24.033741 -0.5734863 24.02295C -3.044216 24.110039 -3.044216 24.110039 -5.75 26.25C -6.971846 29.479164 -6.942141 30.805042 -5.5625 34C -3.4314682 36.64542 -3.005081 36.719856 0.25 37.25C 3.7234561 37.503384 7.1916285 37.69114 10.669922 37.85547C 16.147755 38.147755 16.147755 38.147755 17.25 39.25C 17.62851 42.401737 17.719486 45.58026 17.875 48.75C 17.926563 49.643322 17.978125 50.53664 18.03125 51.45703C 18.075079 52.306522 18.118906 53.156017 18.164062 54.03125C 18.204828 54.815643 18.245596 55.60004 18.287598 56.408203C 18.25 58.25 18.25 58.25 17.25 59.25C 15.044706 59.436237 12.835205 59.5735 10.625 59.6875C 1.8189188 59.97601 1.8189188 59.97601 -5.6875 64C -7.1115656 67.01567 -7.2310076 68.95166 -6.75 72.25C -4.020726 76.02899 -1.1553376 77.04574 3.25 78.25C 5.927269 78.48639 8.451706 78.631325 11.125 78.625C 11.831003 78.62339 12.537006 78.62178 13.264404 78.62012C 19.986664 78.461784 24.358925 77.141075 29.1875 72.3125C 31.377491 68.06134 31.389328 63.60357 31.455322 58.89917C 31.475267 57.63824 31.495213 56.37731 31.515762 55.07817C 31.532743 53.712273 31.549622 52.34637 31.566406 50.98047C 31.586994 49.575134 31.607992 48.169804 31.62938 46.76448C 31.684404 43.077126 31.7339 39.389717 31.782227 35.70227C 31.832584 31.934929 31.888197 28.167665 31.94336 24.40039C 32.0507 17.01699 32.151714 9.633527 32.25 2.25C 41.16 2.25 50.07 2.25 59.25 2.25C 59.340748 11.186873 59.41397 20.123434 59.45725 29.060665C 59.47803 33.2116 59.506172 37.362198 59.551758 41.51294C 59.595554 45.526527 59.61921 49.5398 59.62951 53.55361C 59.63684 55.076878 59.651154 56.60013 59.67292 58.123257C 59.84114 70.39493 58.4718 81.35687 49.86328 90.765625C 39.22794 100.96319 23.66579 102.70947 9.574219 102.4375C -6.1802664 101.54888 -19.440372 98.45486 -30.234375 86.44531C -34.974323 79.57972 -34.833904 70.28675 -33.75 62.25C -32.51291 58.570915 -30.8328 55.50674 -28.75 52.25C -28.068743 50.92406 -27.39724 49.592873 -26.75 48.25C -27.171524 47.718906 -27.593046 47.187813 -28.027344 46.640625C -28.849121 45.581017 -28.849121 45.581017 -29.6875 44.5C -30.232773 43.803905 -30.778048 43.10781 -31.339844 42.390625C -35.169468 36.577236 -34.247406 28.918127 -33.75 22.25C -32.113033 14.523926 -28.285353 9.57622 -21.75 5.25C -14.594681 1.3384258 -8.13291 0.06161295 0 0z" stroke="none" fill="#5F85FD" fill-rule="nonzero" />
    <path transform="matrix(1 0 0 1 581 326)"  d="M0 0C 8.606237 7.276454 11.622441 16.252842 12.792801 27.23169C 13.215222 32.875507 13.141726 38.53091 13.1328125 44.1875C 13.133488 45.539875 13.134459 46.892254 13.135712 48.24463C 13.1371765 51.05844 13.135072 53.872227 13.130371 56.686035C 13.12463 60.298695 13.127988 63.91128 13.133944 67.52394C 13.137546 70.306786 13.136413 73.08962 13.133816 75.87247C 13.132823 77.85403 13.135863 79.83559 13.138947 81.81714C 13.134218 83.60535 13.134218 83.60535 13.129395 85.42969C 13.128599 86.48398 13.127804 87.53827 13.126984 88.62451C 13 91 13 91 12 92C 10.00035 92.08758 7.9976387 92.106964 5.9960938 92.09766C 4.1736817 92.09282 4.1736817 92.09282 2.3144531 92.08789C 1.0350586 92.07951 -0.24433593 92.07114 -1.5625 92.0625C -2.8457618 92.05799 -4.1290236 92.053474 -5.451172 92.04883C -8.63416 92.036995 -11.817058 92.02051 -15 92C -15.005866 91.215965 -15.011732 90.43194 -15.0177765 89.624146C -15.075852 82.20949 -15.148013 74.795166 -15.235715 67.380806C -15.280307 63.56965 -15.319587 59.758595 -15.346436 55.947266C -15.3725815 52.264183 -15.413062 48.5815 -15.463186 44.898666C -15.479779 43.498623 -15.491341 42.098507 -15.497614 40.69838C -15.534652 33.187183 -15.6140375 26.795795 -19 20C -24.72004 14.458711 -32.799675 15.614534 -40.21875 15.699219C -45.779438 15.911003 -50.084816 17.492025 -55 20C -55.66 20 -56.32 20 -57 20C -57 20.66 -57 21.32 -57 22C -55.88625 22.103125 -54.7725 22.20625 -53.625 22.3125C -48.54395 22.931696 -43.867756 24.445023 -39 26C -39 31.94 -39 37.88 -39 44C -42.96 45.98 -42.96 45.98 -47 48C -51.407867 56.155876 -50.560925 65.99914 -50.6875 75.0625C -50.720726 76.70771 -50.75522 78.35289 -50.791016 79.99805C -50.87768 83.99872 -50.938244 87.99856 -51 92C -59.91 92 -68.82 92 -78 92C -78.092316 86.34324 -78.17181 80.68914 -78.21973 75.03223C -78.23972 73.111885 -78.26693 71.19161 -78.30176 69.271484C -78.677444 48.012222 -78.677444 48.012222 -74 41C -73.01 40.01 -72.02 39.02 -71 38C -74.96 36.68 -78.92 35.36 -83 34C -83.18928 29.956139 -83.32784 25.921144 -83.4375 21.875C -83.496155 20.732891 -83.5548 19.590782 -83.615234 18.414062C -83.78272 10.183192 -83.78272 10.183192 -81.667725 6.986084C -79.86557 5.3682218 -78.113174 4.1790624 -76 3C -75.09858 2.4788964 -75.09858 2.4788964 -74.178955 1.9472656C -72.37701 0.9830862 -70.55802 0.13500357 -68.6875 -0.6875C -68.03523 -0.9822119 -67.382965 -1.2769238 -66.71094 -1.5805664C -47.158253 -10.23369 -18.483807 -12.803886 0 0z" stroke="none" fill="#5F85FC" fill-rule="nonzero" />
    <path transform="matrix(1 0 0 1 97 320)"  d="M0 0C 9.24 0 18.48 0 28 0C 28 9.24 28 18.48 28 28C 34.527813 27.845312 34.527813 27.845312 41.1875 27.6875C 42.55157 27.662605 43.915638 27.63771 45.321045 27.61206C 46.946835 27.562391 46.946835 27.562391 48.60547 27.511719C 50.26292 27.472443 50.26292 27.472443 51.953857 27.432373C 55.349655 26.950369 57.266426 26.044746 60 24C 62.392887 19.111465 62.42039 13.970419 62.625 8.625C 62.663673 7.793555 62.702343 6.9621096 62.742188 6.1054688C 62.835743 4.0706487 62.918926 2.0353558 63 0C 67.47916 -0.02886338 71.95828 -0.04675187 76.4375 -0.0625C 77.716896 -0.07087891 78.99629 -0.07925781 80.31445 -0.08789062C 82.13686 -0.09272461 82.13686 -0.09272461 83.99609 -0.09765625C 85.12201 -0.10289307 86.247925 -0.10812988 87.40796 -0.11352539C 90 0 90 0 91 1C 91.70057 13.333256 91.776794 25.826584 84 36C 83.40188 36.825 82.80375 37.65 82.1875 38.5C 81.79562 38.995 81.40375 39.49 81 40C 81.922325 40.377052 81.922325 40.377052 82.86328 40.76172C 85.35237 42.204205 85.98164 43.23837 87.1875 45.8125C 87.511055 46.478947 87.83461 47.14539 88.16797 47.83203C 90.28635 53.351746 90.14607 58.81315 90.13281 64.640625C 90.133766 65.563416 90.13473 66.4862 90.13571 67.43695C 90.13639 69.380165 90.13456 71.32339 90.13037 73.2666C 90.12499 76.2533 90.13034 79.23986 90.13672 82.22656C 90.136055 84.114586 90.13478 86.0026 90.13281 87.890625C 90.134834 88.788475 90.13686 89.68633 90.13895 90.61139C 90.11497 96.88503 90.11497 96.88503 89 98C 87.08542 98.09972 85.167175 98.130806 83.25 98.13281C 82.08469 98.1341 80.91937 98.13539 79.71875 98.13672C 78.49156 98.13285 77.26437 98.12898 76 98.125C 74.15922 98.1308 74.15922 98.1308 72.28125 98.13672C 71.11594 98.13543 69.95062 98.13414 68.75 98.13281C 67.67234 98.13168 66.59469 98.130554 65.484375 98.129395C 63 98 63 98 62 97C 61.87673 94.18753 61.813843 91.39586 61.789062 88.58203C 61.76098 86.83527 61.732315 85.08853 61.703125 83.3418C 61.661957 80.58131 61.62508 77.82098 61.598633 75.0603C 61.570923 72.40051 61.525036 69.741516 61.476562 67.08203C 61.47331 66.26306 61.47006 65.444084 61.466705 64.600296C 61.36253 59.713486 60.78627 56.193356 58 52C 54.761345 50.92045 52.208443 50.79558 48.80078 50.683594C 47.592285 50.6417 46.38379 50.599804 45.13867 50.55664C 43.244717 50.497665 43.244717 50.497665 41.3125 50.4375C 40.03826 50.394318 38.764023 50.35113 37.45117 50.30664C 34.30089 50.20045 31.150532 50.098404 28 50C 28.00222 50.586597 28.00444 51.1732 28.00673 51.777573C 28.028782 57.860252 28.043907 63.942924 28.054932 70.025635C 28.059973 72.29842 28.066807 74.57121 28.07544 76.843994C 28.087513 80.103035 28.09323 83.36204 28.097656 86.62109C 28.102818 87.644 28.107979 88.66691 28.113297 89.72081C 28.113409 91.13216 28.113409 91.13216 28.113525 92.57202C 28.115746 93.40475 28.117966 94.23748 28.120255 95.09544C 28 97 28 97 27 98C 25.085417 98.09972 23.167177 98.130806 21.25 98.13281C 20.084688 98.1341 18.919374 98.13539 17.71875 98.13672C 16.491562 98.13285 15.264375 98.12898 14 98.125C 12.159219 98.1308 12.159219 98.1308 10.28125 98.13672C 9.115937 98.13543 7.950625 98.13414 6.75 98.13281C 5.6723437 98.13168 4.5946875 98.130554 3.484375 98.129395C 1 98 1 98 0 97C -0.09529612 93.986496 -0.12551904 90.99596 -0.11352539 87.98218C -0.11367142 87.035934 -0.11381744 86.08969 -0.1139679 85.11478C -0.11326836 81.97102 -0.10547409 78.82733 -0.09765625 75.68359C -0.09579221 73.51026 -0.09436824 71.33692 -0.09336853 69.16359C -0.08954221 63.43099 -0.07971097 57.69841 -0.06866455 51.96582C -0.05845287 46.121098 -0.05387143 40.27637 -0.04882812 34.43164C -0.0380888 22.954414 -0.02049108 11.477213 0 0z" stroke="none" fill="#5F85FC" fill-rule="nonzero" />
    <path transform="matrix(1 0 0 1 267 319)"  d="M0 0C 8.91 0 17.82 0 27 0C 27 32.67 27 65.34 27 99C 18.75 99 10.5 99 2 99C 1.34 97.02 0.68 95.04 0 93C -0.8108203 93.40992 -1.6216406 93.81985 -2.4570312 94.24219C -15.312599 100.49786 -29.031816 103.68879 -43 99C -51.726955 95.365 -57.674633 89.66453 -61.375 80.9375C -63.71901 74.8125 -64.12498 68.581406 -64.129395 62.0708C -64.13115 61.417896 -64.1329 60.76499 -64.134705 60.0923C -64.13906 57.95994 -64.13621 55.82767 -64.13281 53.695312C -64.133484 52.205555 -64.13446 50.7158 -64.13571 49.226044C -64.13718 46.11781 -64.13506 43.0096 -64.13037 39.901367C -64.12464 35.90975 -64.127975 31.918205 -64.13394 27.926592C -64.13755 24.857224 -64.13641 21.78787 -64.13382 18.718502C -64.13315 17.245634 -64.13397 15.772766 -64.1363 14.2999C -64.138824 12.250877 -64.13429 10.20185 -64.129395 8.152832C -64.1286 6.985918 -64.1278 5.8190045 -64.12698 4.6167297C -64 2 -64 2 -63 1C -61.00035 0.91242 -58.99764 0.8930342 -56.996094 0.90234375C -55.78115 0.9055664 -54.56621 0.90878904 -53.314453 0.9121094C -52.035057 0.9204883 -50.755665 0.92886716 -49.4375 0.9375C -48.15424 0.9420117 -46.870975 0.9465234 -45.54883 0.9511719C -42.36584 0.9630045 -39.18294 0.9794893 -36 1C -35.9912 2.2390862 -35.9912 2.2390862 -35.982224 3.5032043C -35.924236 11.301081 -35.852127 19.098673 -35.764286 26.896273C -35.719624 30.904787 -35.68036 34.9132 -35.653564 38.921875C -35.62749 42.792973 -35.58706 46.663685 -35.536816 50.534542C -35.520172 52.00881 -35.50864 53.483143 -35.502384 54.957493C -35.492714 57.028225 -35.464622 59.09797 -35.432373 61.168457C -35.42127 62.345383 -35.410168 63.522305 -35.398727 64.73489C -34.822598 69.45272 -33.42506 72.86903 -29.671875 75.84766C -24.21765 78.19999 -17.996801 77.90436 -12.359375 76.203125C -8.531598 74.555405 -5.2596908 72.60775 -2 70C -1.34 70 -0.68 70 0 70C 0 46.9 0 23.8 0 0z" stroke="none" fill="#5F85FC" fill-rule="nonzero" />
    <path transform="matrix(1 0 0 1 625 128)"  d="M0 0C 12.87 0 25.74 0 39 0C 39 33.99 39 67.98 39 103C 43.29 103 47.58 103 52 103C 52.024647 108.39347 52.042835 113.78691 52.05493 119.18042C 52.05997 121.016685 52.066803 122.85295 52.07544 124.68921C 52.087517 127.32276 52.09323 129.95627 52.097656 132.58984C 52.102818 133.4159 52.10798 134.24193 52.113297 135.093C 52.11349 137.06236 52.062042 139.03162 52 141C 51.67 141.33 51.34 141.66 51 142C 34.17 142 17.34 142 0 142C 0 95.14 0 48.28 0 0z" stroke="none" fill="#5F85FC" fill-rule="nonzero" />
    <path transform="matrix(1 0 0 1 369.04688 326.2539)"  d="M0 0C 11.882808 10.62323 16.26328 22.809315 17.171875 38.53125C 17.699245 54.851746 14.800101 70.42724 3.328125 82.703125C -8.483588 92.86353 -24.113684 94.44778 -39.046875 93.74609C -47.973873 92.957245 -55.74543 91.11154 -64.046875 87.74609C -64.046875 80.48609 -64.046875 73.2261 -64.046875 65.74609C -59.98813 66.422554 -56.59843 67.151054 -52.734375 68.30859C -41.464092 71.14018 -28.424997 71.61868 -18.046875 65.74609C -13.69852 61.832573 -11.460785 56.141685 -10.756836 50.3667C -10.645552 47.840748 -10.637218 45.336617 -10.671875 42.808594C -10.660274 41.96619 -10.648672 41.12379 -10.636719 40.25586C -10.666507 33.80677 -11.313543 26.917759 -15.674316 21.857666C -21.929102 15.886162 -29.391949 15.358441 -37.671875 15.371094C -38.548355 15.369804 -39.42484 15.368516 -40.32788 15.3671875C -46.947697 15.474106 -52.392006 16.54115 -58.61328 18.871094C -61.046875 19.746094 -61.046875 19.746094 -64.046875 19.746094C -64.046875 12.4860935 -64.046875 5.226094 -64.046875 -2.2539062C -45.147873 -9.813507 -17.57585 -13.45022 0 0z" stroke="none" fill="#5F85FD" fill-rule="nonzero" />
    <path transform="matrix(1 0 0 1 802.051 64.886475)"  d="M0 0C 1.3488873 0.00025096 2.697781 0.00580724 4.046631 0.01586914C 5.991947 0.01961548 5.991947 0.01961548 7.9765625 0.0234375C 9.638083 0.0325415 11.299604 0.04164551 13.011475 0.05102539C 18.27085 0.07165039 23.530224 0.09227539 28.948975 0.11352539C 28.948975 15.953526 28.948975 31.793526 28.948975 48.113525C -9.331025 48.113525 -47.611027 48.113525 -87.051025 48.113525C -86.051025 26.113525 -86.051025 26.113525 -84.051025 20.113525C -57.651024 20.113525 -31.251026 20.113525 -4.0510254 20.113525C -4.0510254 13.843525 -4.0510254 7.5735254 -4.0510254 1.1135254C -3.0510254 0.11352539 -3.0510254 0.11352539 0 0z" stroke="none" fill="#5F85FD" fill-rule="nonzero" />
    <path transform="matrix(1 0 0 1 884 323)"  d="M0 0C 6.414375 -0.0825 12.82875 -0.165 19.4375 -0.25C 21.443846 -0.28641602 23.45019 -0.32283202 25.517334 -0.36035156C 27.135242 -0.3720509 28.753164 -0.38223976 30.371094 -0.390625C 31.597536 -0.4213208 31.597536 -0.4213208 32.848755 -0.45263672C 38.92614 -0.45625907 43.73921 0.9095641 49 4C 51.15625 6.2539062 51.15625 6.2539062 52.5 8.5625C 52.96406 9.326914 53.428123 10.091328 53.90625 10.878906C 56.945824 16.773508 57.130817 24.045372 55.316406 30.390625C 53.118492 35.169495 50.193203 37.900677 46 41C 45.34 41.66 44.68 42.32 44 43C 44.68836 44.359318 44.68836 44.359318 45.390625 45.746094C 55 64.78946 55 64.78946 55 69C 50.05 69 45.1 69 40 69C 39.373516 67.57945 38.747032 66.158905 38.101562 64.69531C 37.276283 62.838436 36.45075 60.98167 35.625 59.125C 35.2125 58.18785 34.8 57.2507 34.375 56.285156C 33.97539 55.38926 33.575783 54.49336 33.164062 53.570312C 32.614197 52.329185 32.614197 52.329185 32.053223 51.06299C 31.058628 48.853123 31.058628 48.853123 29 47C 26.423143 46.693092 23.958967 46.489857 21.375 46.375C 18.94125 46.25125 16.5075 46.1275 14 46C 14 53.59 14 61.18 14 69C 9.38 69 4.76 69 0 69C 0 46.23 0 23.46 0 0z" stroke="none" fill="#FDFDFE" fill-rule="nonzero" />
    <path transform="matrix(1 0 0 1 950 323)"  d="M0 0C 4.95 0 9.9 0 15 0C 21.513504 12.919247 27.92236 25.869513 34 39C 35.484215 36.773674 36.696674 34.728508 37.879395 32.354736C 38.239616 31.634216 38.59984 30.913696 38.970978 30.17134C 39.35438 29.399368 39.73779 28.627396 40.132812 27.832031C 40.52951 27.037218 40.92621 26.242405 41.33493 25.423508C 42.60017 22.887438 43.862617 20.34999 45.125 17.8125C 45.98289 16.091705 46.84096 14.371001 47.69922 12.650391C 49.801586 8.43464 51.901447 4.2176514 54 0C 58.95 0 63.9 0 69 0C 69 22.77 69 45.54 69 69C 64.05 69 59.1 69 54 69C 53.67 55.8 53.34 42.6 53 29C 48.38 38.24 43.76 47.48 39 57C 36.03 57 33.06 57 30 57C 25 47 20 37 15 27C 14.67 40.86 14.34 54.72 14 69C 9.38 69 4.76 69 0 69C 0 46.23 0 23.46 0 0z" stroke="none" fill="#FCFCFE" fill-rule="nonzero" />
    <path transform="matrix(1 0 0 1 233.84375 144.86719)"  d="M0 0C 0.68429077 -0.00095673 1.3685815 -0.00191345 2.0736084 -0.00289917C 3.5228689 -0.0035808 4.972132 -0.00172773 6.4213867 0.00244141C 8.646879 0.00778998 10.87217 0.0024959 13.097656 -0.00390625C 14.5026045 -0.00324547 15.907553 -0.0019643 17.3125 0C 18.599628 0.00112793 19.886757 0.00225586 21.21289 0.00341797C 24.15625 0.1328125 24.15625 0.1328125 25.15625 1.1328125C 25.15625 5.0928125 25.15625 9.052813 25.15625 13.1328125C 36.70625 13.1328125 48.25625 13.1328125 60.15625 13.1328125C 60.941547 17.059298 61.241344 19.702744 61.070312 23.582031C 61.026485 24.59459 60.982655 25.60715 60.9375 26.65039C 60.860157 28.219501 60.860157 28.219501 60.78125 29.820312C 60.737423 30.877989 60.693592 31.935663 60.648438 33.02539C 60.28752 40.870266 60.28752 40.870266 59.15625 43.132812C 37.04625 43.132812 14.93625 43.132812 -7.84375 43.132812C -7.864375 36.22344 -7.885 29.314062 -7.90625 22.195312C -7.915354 20.01172 -7.924458 17.82813 -7.933838 15.578369C -7.936757 13.858236 -7.939306 12.138103 -7.9414062 10.417969C -7.946522 9.51623 -7.951638 8.61449 -7.956909 7.685425C -7.9572186 5.500895 -7.9062085 3.3164492 -7.84375 1.1328125C -5.9352503 -0.775687 -2.5289624 0.00221617 0 0z" stroke="none" fill="#5F85FC" fill-rule="nonzero" />
    <path transform="matrix(1 0 0 1 226 214)"  d="M0 0C 10.89 0 21.78 0 33 0C 33 3.96 33 7.92 33 12C 44.55 12 56.1 12 68 12C 68.79888 15.994427 69.080086 18.740831 68.91406 22.703125C 68.87023 23.765312 68.82641 24.8275 68.78125 25.921875C 68.7039 27.569298 68.7039 27.569298 68.625 29.25C 68.58117 30.36375 68.537346 31.4775 68.49219 32.625C 68.13022 40.869778 68.13022 40.869778 67 42C 64.91381 42.094177 62.824394 42.117428 60.736084 42.113525C 59.75563 42.113743 59.75563 42.113743 58.75537 42.113968C 56.58558 42.11327 54.41587 42.105476 52.246094 42.097656C 50.745365 42.09579 49.24464 42.094368 47.74391 42.09337C 43.78682 42.089542 39.82976 42.079712 35.87268 42.068665C 31.128683 42.056656 26.384672 42.052048 21.640663 42.04621C 14.427083 42.036503 7.2135835 42.017345 0 42C 0 28.14 0 14.28 0 0z" stroke="none" fill="#5F86FD" fill-rule="nonzero" />
    <path transform="matrix(1 0 0 1 1030 323)"  d="M0 0C 4.95 0 9.9 0 15 0C 15.014583 1.3568188 15.029165 2.7136376 15.044189 4.1115723C 15.102332 9.164244 15.179564 14.216477 15.262451 19.268799C 15.295626 21.451994 15.323681 23.635275 15.346436 25.818604C 15.380119 28.964067 15.432443 32.108765 15.488281 35.253906C 15.494671 36.223972 15.501061 37.194035 15.507645 38.193497C 15.629726 43.870277 16.261917 47.989033 19 53C 23.602123 56.85477 28.143433 56.432026 33.89453 56.289062C 38.53643 55.856987 41.500668 54.664345 44.621414 51.200134C 46.252014 48.5978 46.393055 47.09889 46.432373 44.04785C 46.452168 43.06714 46.471962 42.086422 46.492355 41.07599C 46.498745 40.02482 46.505135 38.973648 46.51172 37.890625C 46.52967 36.808678 46.547623 35.72673 46.566116 34.612C 46.620277 31.15804 46.654133 27.704218 46.6875 24.25C 46.72067 21.907534 46.755157 19.565084 46.791016 17.222656C 46.876007 11.481871 46.94279 5.741127 47 0C 51.95 0 56.9 0 62 0C 62.09929 6.9559317 62.17167 13.911446 62.219727 20.86792C 62.239773 23.2316 62.267017 25.59523 62.301758 27.95874C 62.350582 31.36715 62.37304 34.7749 62.390625 38.183594C 62.41127 39.23083 62.431915 40.27807 62.453186 41.35704C 62.455505 49.0415 61.08978 55.30978 56.070312 61.304688C 45.676067 69.69522 36.239548 70.95821 23 70C 14.891075 68.25454 8.243069 64.89912 3.6120605 57.90332C -1.8359754 47.009315 -0.5425907 35.11747 -0.3125 23.25C -0.28738105 20.992212 -0.26457426 18.734398 -0.24414062 16.476562C -0.18944263 10.983701 -0.10336747 5.492152 0 0z" stroke="none" fill="#FAFBFE" fill-rule="nonzero" />
    <path transform="matrix(1 0 0 1 1278 323)"  d="M0 0C 4.95 0 9.9 0 15 0C 15.33 8.91 15.66 17.82 16 27C 18.495625 24.36 20.99125 21.72 23.5625 19C 24.334084 18.185312 25.105669 17.370625 25.900635 16.53125C 29.884306 12.307451 33.77786 8.025669 37.57007 3.6289062C 38.66813 2.3780508 39.82306 1.1769403 41 0C 43.909355 -0.14517744 46.719948 -0.18630797 49.625 -0.125C 50.426796 -0.11597656 51.228592 -0.10695313 52.054688 -0.09765625C 54.036587 -0.07406223 56.01833 -0.03819065 58 0C 54.397034 5.1314964 50.51853 9.609966 46.027344 13.980469C 41.976982 18.01522 38.172672 22.24099 35 27C 35.36695 30.109684 36.664333 32.341633 38.335938 34.94922C 38.81837 35.707268 39.3008 36.465317 39.79785 37.246338C 40.31831 38.05192 40.838768 38.857506 41.375 39.6875C 41.905773 40.51951 42.436543 41.351517 42.9834 42.20874C 45.71116 46.476013 48.46854 50.723373 51.242188 54.960938C 51.748306 55.73607 52.254425 56.511196 52.77588 57.309814C 53.74486 58.79057 54.71837 60.268375 55.696777 61.74292C 59 66.77969 59 66.77969 59 69C 46.052273 70.49974 46.052273 70.49974 41.867188 67.44141C 39.99753 64.73088 38.532166 61.917004 37 59C 35.444218 56.51422 33.845673 54.05841 32.24878 51.598877C 30.610964 49.07469 28.984167 46.545013 27.378906 44C 26.920725 43.278126 26.462543 42.55625 25.990479 41.8125C 25 40 25 40 25 38C 23.871052 38.93274 22.746992 39.871403 21.625 40.8125C 20.685274 41.595604 20.685274 41.595604 19.726562 42.39453C 17.438787 44.52185 16.104685 46.225132 15.681152 49.360107C 15.649732 50.266075 15.618311 51.172047 15.5859375 52.10547C 15.527929 53.579834 15.527929 53.579834 15.46875 55.083984C 15.422344 56.620224 15.422344 56.620224 15.375 58.1875C 15.316992 59.741142 15.316992 59.741142 15.2578125 61.32617C 15.163522 63.88382 15.08067 66.44189 15 69C 10.05 69 5.1 69 0 69C 0 46.23 0 23.46 0 0z" stroke="none" fill="#FAFBFE" fill-rule="nonzero" />
    <path transform="matrix(1 0 0 1 1210 323)"  d="M0 0C 4.95 0 9.9 0 15 0C 15.33 8.58 15.66 17.16 16 26C 22.407854 19.619492 22.407854 19.619492 28.5625 13C 29.133554 12.360625 29.704609 11.72125 30.292969 11.0625C 32.074234 8.992908 32.074234 8.992908 33.61328 6.5C 37.907806 0.40577418 37.907806 0.40577418 42.0166 -0.39111328C 47.04027 -0.7786289 51.9913 -0.4610282 57 0C 52.698307 6.145275 47.818108 11.551491 42.671143 16.986816C 39.61921 20.216467 36.719513 23.477901 34 27C 35.708115 32.05359 38.57447 36.293293 41.4375 40.75C 41.96376 41.57677 42.49002 42.403545 43.032227 43.25537C 45.747932 47.51376 48.487106 51.75664 51.23828 55.992188C 51.998306 57.162495 51.998306 57.162495 52.77368 58.356445C 53.745464 59.849716 54.719845 61.341305 55.69702 62.831055C 59 67.892235 59 67.892235 59 69C 53.673916 69.82342 48.246464 70.5927 43 69C 39.30526 65.523224 37.318085 61.647278 35.09912 57.131836C 33.12939 53.311382 30.753483 49.74194 28.4375 46.125C 27.579943 44.753906 26.724285 43.381626 25.871094 42.007812C 25.253633 41.015236 24.636171 40.022655 24 39C 20.01761 40.32746 17.901215 42.33406 16 46C 15.260599 49.957584 15.209769 53.856583 15.1875 57.875C 15.162363 58.944923 15.137226 60.014843 15.111328 61.117188C 15.052685 63.7444 15.023424 66.37224 15 69C 10.05 69 5.1 69 0 69C 0 46.23 0 23.46 0 0z" stroke="none" fill="#FBFCFE" fill-rule="nonzero" />
    <path transform="matrix(1 0 0 1 1394 325)"  d="M0 0C 0 4.29 0 8.58 0 13C -1.918125 12.505 -3.83625 12.01 -5.8125 11.5C -15.021873 9.400143 -24.367373 8.379721 -33 13C -37.15663 16.353762 -39.344513 20.756092 -40 26C -40.620537 35.396675 -40.818768 42.355553 -34.6875 49.8125C -29.535145 54.00628 -24.196417 54.330734 -17.75 54.25C -17.004358 54.24613 -16.258717 54.242264 -15.4904785 54.23828C -9.788838 54.14928 -4.539898 53.40696 1 52C 1 56.29 1 60.58 1 65C -11.326736 68.79284 -25.512121 70.61468 -37.67578 65.25C -46.851376 60.315228 -51.67036 54.14178 -55.375 44.375C -57.796192 31.941174 -56.24214 20.752878 -50.1875 9.6875C -37.683475 -5.674585 -17.768764 -6.271329 0 0z" stroke="none" fill="#FAFBFE" fill-rule="nonzero" />
    <path transform="matrix(1 0 0 1 515 291)"  d="M0 0C 10.152661 -0.02312392 20.305317 -0.04091534 30.458 -0.05181217C 35.1718 -0.05704089 39.88558 -0.06413834 44.599365 -0.07543945C 49.144554 -0.08626873 53.689724 -0.09227692 58.234924 -0.09487724C 59.97295 -0.09673142 61.71097 -0.10035189 63.448986 -0.10573006C 65.87479 -0.11294103 68.300514 -0.11399092 70.72632 -0.11352539C 71.45208 -0.11712067 72.17784 -0.12071594 72.9256 -0.12442017C 77.88595 -0.11405216 77.88595 -0.11405216 79 1C 79.09837 2.3304362 79.13078 3.6659334 79.13281 5C 79.1341 5.804375 79.13539 6.60875 79.13672 7.4375C 79.13285 8.283125 79.12898 9.12875 79.125 10C 79.12887 10.845625 79.13274 11.69125 79.13672 12.5625C 79.13543 13.366875 79.13414 14.17125 79.13281 15C 79.13168 15.7425 79.130554 16.485 79.129395 17.25C 79 19 79 19 78 20C 75.53556 20.095005 73.09925 20.12558 70.63452 20.113525C 69.863846 20.113672 69.09316 20.113817 68.29913 20.113968C 65.73976 20.113268 63.180454 20.105476 60.621094 20.097656C 58.851322 20.095793 57.081554 20.094368 55.311783 20.093369C 50.644485 20.089542 45.977222 20.079712 41.309937 20.068665C 36.55103 20.05845 31.792118 20.053871 27.033203 20.048828C 17.68879 20.03809 8.344397 20.021013 -1 20C -1.8992913 15.91409 -1.9779427 12.495349 -1.625 8.3125C -1.5347656 7.1742578 -1.4445312 6.0360155 -1.3515625 4.8632812C -1 2 -1 2 0 0z" stroke="none" fill="#5F86FD" fill-rule="nonzero" />
    <path transform="matrix(1 0 0 1 1099 323)"  d="M0 0C 18.81 0 37.62 0 57 0C 57 3.63 57 7.26 57 11C 50.07 11 43.14 11 36 11C 36 30.14 36 49.28 36 69C 31.05 69 26.1 69 21 69C 21 49.86 21 30.72 21 11C 14.07 11 7.14 11 0 11C 0 7.37 0 3.74 0 0z" stroke="none" fill="#FCFDFE" fill-rule="nonzero" />
    <path transform="matrix(1 0 0 1 1164 323)"  d="M0 0C 4.62 0 9.24 0 14 0C 14 22.77 14 45.54 14 69C 9.38 69 4.76 69 0 69C 0 46.23 0 23.46 0 0z" stroke="none" fill="#FEFEFF" fill-rule="nonzero" />
    <path transform="matrix(1 0 0 1 269.59204 292.88647)"  d="M0 0C 1.1259155 0.00523682 2.251831 0.01047363 3.4118652 0.01586914C 4.6268067 0.0190918 5.841748 0.02231445 7.093506 0.02563477C 8.3729 0.03401367 9.652295 0.04239258 10.970459 0.05102539C 12.25372 0.05553711 13.536983 0.06004883 14.859131 0.06469727C 18.04212 0.07652994 21.225018 0.09301471 24.407959 0.11352539C 24.43684 3.4260073 24.454718 6.738457 24.470459 10.051025C 24.478838 10.996552 24.487217 11.9420805 24.49585 12.91626C 24.500683 14.264941 24.500683 14.264941 24.505615 15.640869C 24.51347 16.88985 24.51347 16.88985 24.521484 18.164062C 24.407959 20.113525 24.407959 20.113525 23.407959 21.113525C 21.493376 21.213243 19.575136 21.244331 17.657959 21.246338C 16.492647 21.247627 15.327334 21.248917 14.126709 21.250244C 12.899522 21.246376 11.672334 21.24251 10.407959 21.238525C 8.567178 21.244326 8.567178 21.244326 6.689209 21.250244C 5.5238967 21.248955 4.358584 21.247665 3.157959 21.246338C 2.0803027 21.24521 1.0026464 21.244081 -0.10766602 21.24292C -2.592041 21.113525 -2.592041 21.113525 -3.592041 20.113525C -3.6906424 18.710037 -3.7228303 17.301722 -3.7248535 15.894775C -3.7261426 15.045283 -3.7274315 14.195791 -3.7287598 13.320557C -3.7248926 12.427237 -3.7210255 11.533916 -3.717041 10.613525C -3.7209082 9.720205 -3.7247753 8.826885 -3.7287598 7.906494C -3.7274706 7.057002 -3.7261817 6.20751 -3.7248535 5.3322754C -3.7237256 4.5478806 -3.7225976 3.7634864 -3.7214355 2.9553223C -3.5141363 0.00463273 -2.971169 0.1301303 0 0z" stroke="none" fill="#5F86FC" fill-rule="nonzero" />
    <path transform="matrix(1 0 0 1 898 335)"  d="M0 0C 3.361875 -0.0825 6.72375 -0.165 10.1875 -0.25C 11.238328 -0.28641602 12.289155 -0.32283202 13.371826 -0.36035156C 17.74859 -0.41239095 20.299688 -0.42528376 24.113281 1.890625C 27.318628 5.4742417 27.282179 8.088524 27.214844 12.7421875C 26.916767 15.874695 26.072762 17.64134 24 20C 19.276714 22.647623 14.434377 22.225945 9.1875 22.125C 6.155625 22.08375 3.12375 22.0425 0 22C 0 14.74 0 7.48 0 0z" stroke="none" fill="#6288FD" fill-rule="nonzero" />
    <path transform="matrix(1 0 0 1 1188 381)"  d="M0 0C 3.96 0 7.92 0 12 0C 12 3.63 12 7.26 12 11C 8.04 11 4.08 11 0 11C 0 7.37 0 3.74 0 0z" stroke="none" fill="#FBFCFF" fill-rule="nonzero" />
</g>
</svg>